<?xml version="1.0" encoding="UTF-8" standalone="no"?><!DOCTYPE svg PUBLIC "-//W3C//DTD SVG 1.1//EN" "http://www.w3.org/Graphics/SVG/1.1/DTD/svg11.dtd"><svg width="100%" height="100%" viewBox="0 0 661 537" version="1.1" xmlns="http://www.w3.org/2000/svg" xmlns:xlink="http://www.w3.org/1999/xlink" xml:space="preserve" xmlns:serif="http://www.serif.com/" style="fill-rule:evenodd;clip-rule:evenodd;stroke-linejoin:round;stroke-miterlimit:2;"><g id="Fondo"><path d="M313.5,0l1,0c1.563,0.533 1.359,1.022 3.003,1.023c1.614,0.002 1.415,-0.483 2.997,-1.023l14,0c1.505,0.747 1.554,0.723 3,0l1,0c0.48,0.074 0.561,0.944 1.041,1.018c1.969,0.302 3.984,0.014 5.975,0.058c4.878,0.106 26.128,4.088 27.008,4.356c38.016,11.571 38.987,16.749 51.264,24.59c21.747,13.889 38.744,46.582 41.17,51.248c0.203,0.391 82.723,146.967 88.625,157.181c2.151,3.722 15.053,26.045 26.369,46.821c33.915,62.267 34.797,61.71 37.624,67.183c14.025,27.149 15.878,26.004 29.648,53.187c13.115,25.891 12.255,35.177 12.741,36.808c0.14,0.471 0.892,0.58 1.033,1.051l0,26c-0.613,1.594 -0.849,1.416 -1.176,3.058c-1.441,7.242 -1.772,7.076 -4.216,13.988c-4.407,12.466 -20.979,37.607 -56.193,46.713c-13.523,3.497 -13.707,2.406 -14.875,2.721c-0.468,0.126 -0.571,0.893 -1.039,1.019l-132,0c-1.655,-0.632 -1.423,-0.954 -3.062,-1.17c-16.05,-2.119 -120.445,-67.344 -125.021,-65.548c-4.07,1.597 -55.262,31.251 -60.039,34.018c-52.494,30.408 -55.39,30.791 -60.823,31.508c-1.743,0.23 -1.506,0.588 -3.055,1.192l-124,0c-0.468,-0.137 -0.578,-0.884 -1.045,-1.021c-1.33,-0.389 -1.51,0.816 -16.988,-3.389c-26.867,-7.3 -46.5,-30.883 -51.049,-43.053c-2.726,-7.292 -5.01,-16.584 -5.211,-17.988c-0.189,-1.323 0.126,-2.706 -0.185,-4.006c-0.113,-0.473 -0.909,-0.568 -1.022,-1.041l-0,-21c0.111,-0.474 0.911,-0.57 1.022,-1.044c0.166,-0.708 -0.522,-0.783 1.142,-9.02c5.235,-25.915 42.31,-85.356 72.613,-144.793c3.674,-7.207 4.772,-6.562 47.975,-89.012c53.35,-101.815 70.507,-129.512 77.259,-140.411c22.784,-36.779 66.419,-55.555 93.539,-58.278c2.979,-0.299 10.038,-1.585 10.908,-1.743c3.998,-0.728 4.009,0.439 8,-0.182c0.479,-0.075 0.563,-0.942 1.042,-1.017l265.015,510.999c37.403,-3.119 69.338,-35.074 55.234,-77.591c-2.119,-6.387 -6,-18.087 -38.057,-75.019c-9.119,-16.195 -101.413,-180.104 -113.269,-202.843c-2.368,-4.541 -16.468,-31.583 -30.733,-56.159c-11.317,-19.497 -24.364,-49.553 -56.066,-66.092c-50.099,-26.136 -110.354,-14.085 -131.909,-3.341c-28.259,14.086 -33.059,23.837 -44.002,37.711c-10.93,13.857 -146.549,271.848 -185.472,349.709c-14.388,28.781 -7.085,55.958 0.509,65.935c26.833,35.25 52.822,27.983 142.751,28.656c28.201,0.211 26.637,-6.242 63.953,-25.542c2.451,-1.268 19.143,-9.901 30.165,-16.724c23.481,-14.535 24.541,-12.493 47.996,-27.005c5.826,-3.605 6.731,-2.363 24.76,8.015c29.303,16.869 29.867,15.711 59.176,32.704c33.47,19.406 33.982,18.435 36.688,20.425c15.008,11.034 29.686,7.675 96.261,8.124c33.327,0.225 33.243,-0.559 42.014,-0.964l-265.015,-510.999l159.374,479.105c4.267,-0.022 0.869,-2.289 0.723,-2.221c-1.286,0.602 -0.841,0.861 -0.723,2.221l-159.374,-479.105Z" style="fill:#fff;fill-opacity:0.98;"/><path d="M84.516,497.002c-2.76,-0.567 -11.192,-1.044 -22.764,-8.825c-1.314,-0.884 -8.841,-5.944 -13.33,-14.632c-15.804,-30.584 0.264,-54.593 9.619,-73.266c4.023,-8.029 26.862,-53.616 51.698,-99.64c1.278,-2.368 8.548,-1.666 84.762,-1.595c79.905,0.075 82.696,-1.385 81.733,1.39c-0.852,2.453 -33.343,67.44 -36.268,73.291c-5.034,10.069 -5.244,9.832 -5.535,10.755c-1.2,3.803 1.543,0.765 5.022,-1.06c1.714,-0.899 14.219,-7.457 21.163,-11.719c55.567,-34.105 78.498,-25.72 108.126,-10.691c45.671,23.167 46.555,25.727 47.833,26.235c3.942,1.568 -0.786,-2.001 -23.531,-47.521c-10.74,-21.493 -21.022,-40.657 -20.559,-41.237c0.448,-0.562 170.831,-0.466 172.034,-0.032c2.958,1.067 25.409,44.519 38.791,68.157c22.349,39.479 21.918,39.656 23.992,43.006c33.879,54.709 -1.416,79.402 -19.911,85.411c-5.703,1.853 -5.761,1.111 -10.87,2.535c-3.361,0.936 -116.997,0.388 -118.059,0.217c-11.073,-1.781 -83.465,-45.903 -123.829,-67.539c-6.938,-3.719 -7.042,-7.086 -13.909,-3.302c-59.301,32.669 -119.571,67.526 -122.182,68.657c-7.599,3.291 -59.847,0.401 -70.053,1.793c-3.55,0.484 -3.455,-0.5 -6.993,-0.418c-6.658,0.154 -28.976,0.05 -36.98,0.029l388.358,-17.898c4.267,-0.022 0.869,-2.289 0.723,-2.221c-1.286,0.602 -0.841,0.861 -0.723,2.221l-388.358,17.898Z" style="fill:#fff;fill-opacity:1;"/><path d="M400.5,285.01c-3.927,-0.039 -30.705,0.13 -33.1,-0.148c-2.284,-0.265 -31.38,-57.309 -32.998,-61.32c-2.338,-5.797 -2.443,-5.91 -2.43,-68.041c0.02,-100.806 -0.06,-125.274 0.174,-126.13c0.797,-2.911 28.453,2.477 33.386,4.044c14.667,4.659 44.724,15.116 68.047,60.039c9.837,18.948 10.941,18.246 20.656,37.185c25.418,49.551 26.814,48.687 28.986,53.005c11.41,22.686 27.396,49.933 28.357,51.811c24.098,47.082 29.296,49.251 24.871,49.599c-1.899,0.149 -125.072,-0.027 -135.948,-0.043Z" style="fill:#fff;fill-opacity:1;"/><path d="M317.003,211.497c-1.24,11.483 -2.958,10.997 -29.045,63.224c-4.945,9.901 -4.988,11.242 -9.457,11.293c-79.064,0.887 -78.997,-1.26 -157.999,-0.058c-0.633,0.01 -5.208,1.5 -2.843,-2.361c5.298,-8.648 103.751,-199.738 113.58,-211.309c15.162,-17.849 25.976,-33.902 75.212,-43.089c0.714,-0.133 0.729,0.459 9.04,-0.778c1.566,-0.233 1.523,1.082 1.527,73.081c-0.005,36.665 -0.01,73.331 -0.016,109.996Z" style="fill:#fff;fill-opacity:0.99;"/><path d="M314.5,0l6,0c-1.582,0.54 -1.384,1.025 -2.997,1.023c-1.644,-0.002 -1.44,-0.491 -3.003,-1.023Z" style="fill:#fff;fill-opacity:0.21;"/><path d="M334.5,0l3,0c-1.446,0.723 -1.495,0.747 -3,0Z" style="fill:#fff;fill-opacity:0.18;"/></g></svg>